# xmcd
#
# Track frame offsets: 
#        183
#        27853
#        43315
#        61665
#        92645
#        117138
#        148915
#
# Disc length: 2266 seconds
#
# Revision: 1
# Processed by: cddbd v1.5.2PL0 Copyright (c) Steve Scherf et al.
# Submitted via: ExactAudioCopy v1.0b1
#
DISCID=5b08d807
DTITLE=Toney Lee - Teaser
DYEAR=1986
DGENRE=Funk
TTITLE0=Teaser
TTITLE1=Nights Lights
TTITLE2=Goin' Through The Motions Of Love
TTITLE3=Reach Up
TTITLE4=Let's Call It A Day
TTITLE5=Love So Deep
TTITLE6=Grand Larceny
EXTD=
EXTT0=
EXTT1=
EXTT2=
EXTT3=
EXTT4=
EXTT5=
EXTT6=
PLAYORDER=
